<svg width="90" height="60" viewBox="0 0 90 60" fill="none" xmlns="http://www.w3.org/2000/svg">
<g id="Frame 1">
<g id="gdsc logo">
<path id="Vector" d="M21.3796 30.062L35.9963 18.7373C39.4093 16.0551 40.5966 10.1941 38.5932 5.62442C36.5899 1.0548 32.2123 -0.534634 28.7991 2.14754L3.57239 21.6182L21.3796 30.062Z" fill="#EA4335"/>
<path id="Vector_2" d="M32.3608 59.0692C34.8093 59.0692 37.2578 57.3805 38.5933 54.3008C40.5966 49.7312 39.4096 43.8702 35.9963 41.188L10.7697 21.7175C7.35663 19.0353 2.97883 20.6248 0.975502 25.1944C-1.02758 29.764 0.159414 35.6251 3.57244 38.3073L28.7993 57.7778C29.9124 58.6719 31.1736 59.0692 32.3608 59.0692Z" fill="#4285F4"/>
<path id="Vector_3" d="M57.4395 59.0692C58.6265 59.0692 59.888 58.672 61.0007 57.7778L86.2276 38.3074L68.6431 29.6647L53.8038 41.0886C50.3907 43.7708 49.2035 49.6321 51.2068 54.2017C52.5425 57.3806 54.991 59.0692 57.4395 59.0692Z" fill="#FBBC04"/>
<path id="Vector_4" d="M82.6664 39.5987C85.1149 39.5987 87.5634 37.9097 88.8989 34.8303C90.9022 30.2606 89.7152 24.3996 86.3022 21.7174L61.0753 2.24683C57.6622 -0.435338 53.2847 1.15413 51.2813 5.72374C49.278 10.2934 50.465 16.1544 53.878 18.8365L79.1049 38.3073C80.218 39.2011 81.4792 39.5987 82.6664 39.5987Z" fill="#34A853"/>
</g>
</g>
</svg>
