<svg width="21" height="21" viewBox="0 0 21 21" fill="none" xmlns="http://www.w3.org/2000/svg">
<path d="M10.2564 14.7412C11.35 14.7412 12.3988 14.2958 13.1721 13.5029C13.9453 12.71 14.3798 11.6345 14.3798 10.5132C14.3798 9.39183 13.9453 8.31641 13.1721 7.52349C12.3988 6.73058 11.35 6.28513 10.2564 6.28513C9.16283 6.28513 8.11404 6.73058 7.34076 7.52349C6.56748 8.31641 6.13306 9.39183 6.13306 10.5132C6.13306 11.6345 6.56748 12.71 7.34076 13.5029C8.11404 14.2958 9.16283 14.7412 10.2564 14.7412Z" stroke="#373737" stroke-width="1.5" stroke-linecap="round" stroke-linejoin="round"/>
<path d="M10.2564 14.7412C11.35 14.7412 12.3988 14.2958 13.1721 13.5029C13.9453 12.71 14.3798 11.6345 14.3798 10.5132C14.3798 9.39183 13.9453 8.31641 13.1721 7.52349C12.3988 6.73058 11.35 6.28513 10.2564 6.28513C9.16283 6.28513 8.11404 6.73058 7.34076 7.52349C6.56748 8.31641 6.13306 9.39183 6.13306 10.5132C6.13306 11.6345 6.56748 12.71 7.34076 13.5029C8.11404 14.2958 9.16283 14.7412 10.2564 14.7412Z" stroke="black" stroke-opacity="0.2" stroke-width="1.5" stroke-linecap="round" stroke-linejoin="round"/>
<path d="M0.978149 14.7412V6.28507C0.978149 4.88338 1.52118 3.5391 2.48778 2.54796C3.45438 1.55682 4.76537 1 6.13234 1H14.3791C15.746 1 17.057 1.55682 18.0236 2.54796C18.9902 3.5391 19.5332 4.88338 19.5332 6.28507V14.7412C19.5332 16.1429 18.9902 17.4871 18.0236 18.4783C17.057 19.4694 15.746 20.0262 14.3791 20.0262H6.13234C4.76537 20.0262 3.45438 19.4694 2.48778 18.4783C1.52118 17.4871 0.978149 16.1429 0.978149 14.7412Z" stroke="#373737" stroke-width="1.5"/>
<path d="M0.978149 14.7412V6.28507C0.978149 4.88338 1.52118 3.5391 2.48778 2.54796C3.45438 1.55682 4.76537 1 6.13234 1H14.3791C15.746 1 17.057 1.55682 18.0236 2.54796C18.9902 3.5391 19.5332 4.88338 19.5332 6.28507V14.7412C19.5332 16.1429 18.9902 17.4871 18.0236 18.4783C17.057 19.4694 15.746 20.0262 14.3791 20.0262H6.13234C4.76537 20.0262 3.45438 19.4694 2.48778 18.4783C1.52118 17.4871 0.978149 16.1429 0.978149 14.7412Z" stroke="black" stroke-opacity="0.2" stroke-width="1.5"/>
<path d="M15.925 4.71079L15.9357 4.69855" stroke="#373737" stroke-width="1.5" stroke-linecap="round" stroke-linejoin="round"/>
<path d="M15.925 4.71079L15.9357 4.69855" stroke="black" stroke-opacity="0.2" stroke-width="1.5" stroke-linecap="round" stroke-linejoin="round"/>
</svg>
