<svg width="22" height="23" viewBox="0 0 22 23" fill="none" xmlns="http://www.w3.org/2000/svg">
<path d="M5.44054 17.4V9.4317M20.9824 7.15505V16.2616C20.9824 17.7711 20.3976 19.2188 19.3567 20.2862C18.3157 21.3536 16.9039 21.9532 15.4317 21.9532H6.55067C5.07854 21.9532 3.66671 21.3536 2.62575 20.2862C1.5848 19.2188 1 17.7711 1 16.2616V7.15505C1 5.64554 1.5848 4.19786 2.62575 3.13047C3.66671 2.06309 5.07854 1.46344 6.55067 1.46344H15.4317C16.9039 1.46344 18.3157 2.06309 19.3567 3.13047C20.3976 4.19786 20.9824 5.64554 20.9824 7.15505Z" stroke="#565656" stroke-width="1.5" stroke-linecap="round" stroke-linejoin="round"/>
<path d="M5.44054 17.4V9.4317M20.9824 7.15505V16.2616C20.9824 17.7711 20.3976 19.2188 19.3567 20.2862C18.3157 21.3536 16.9039 21.9532 15.4317 21.9532H6.55067C5.07854 21.9532 3.66671 21.3536 2.62575 20.2862C1.5848 19.2188 1 17.7711 1 16.2616V7.15505C1 5.64554 1.5848 4.19786 2.62575 3.13047C3.66671 2.06309 5.07854 1.46344 6.55067 1.46344H15.4317C16.9039 1.46344 18.3157 2.06309 19.3567 3.13047C20.3976 4.19786 20.9824 5.64554 20.9824 7.15505Z" stroke="black" stroke-opacity="0.2" stroke-width="1.5" stroke-linecap="round" stroke-linejoin="round"/>
<path d="M9.88194 17.4002V13.7006M9.88194 13.7006V9.43191M9.88194 13.7006C9.88194 9.43191 16.5427 9.43191 16.5427 13.7006V17.4002M5.44141 6.02833L5.45251 6.01581" stroke="#565656" stroke-width="1.5" stroke-linecap="round" stroke-linejoin="round"/>
<path d="M9.88194 17.4002V13.7006M9.88194 13.7006V9.43191M9.88194 13.7006C9.88194 9.43191 16.5427 9.43191 16.5427 13.7006V17.4002M5.44141 6.02833L5.45251 6.01581" stroke="black" stroke-opacity="0.2" stroke-width="1.5" stroke-linecap="round" stroke-linejoin="round"/>
</svg>
