<svg width="25" height="18" viewBox="0 0 25 18" fill="none" xmlns="http://www.w3.org/2000/svg">
<path d="M24.53 11.2961C24.53 13.0923 24.1829 14.6288 23.5258 15.7382C22.7122 17.113 21.4451 17.84 19.8693 17.84C16.8096 17.84 14.637 13.7145 12.3373 9.34147C10.4734 5.798 8.36101 1.784 6.35152 1.784C5.32432 1.784 4.16791 2.899 3.25789 4.7577C2.28989 6.79791 1.77576 9.03039 1.75214 11.2961C1.75214 12.7679 2.01277 13.9854 2.50556 14.8172C2.99835 15.649 3.70359 16.056 4.6607 16.056C6.31648 16.056 8.03905 13.3198 9.50428 10.6427C9.61755 10.4357 9.80694 10.283 10.0308 10.2181C10.2546 10.1533 10.4946 10.1817 10.6979 10.297C10.9012 10.4124 11.0512 10.6052 11.1149 10.8331C11.1785 11.061 11.1507 11.3054 11.0374 11.5124C9.35863 14.5742 7.34476 17.84 4.6607 17.84C3.08268 17.84 1.81347 17.113 1.0042 15.7382C0.347143 14.6232 0 13.0923 0 11.2961C0.0258151 8.75485 0.602417 6.25079 1.68863 3.96271C2.93703 1.40713 4.5928 0 6.35152 0C9.4112 0 11.5828 4.1255 13.8835 8.49853C15.7463 12.042 17.8587 16.056 19.8693 16.056C20.8264 16.056 21.5316 15.6513 22.0244 14.8172C22.5172 13.9832 22.7779 12.7679 22.7779 11.2961C22.7546 9.03048 22.2408 6.798 21.2732 4.7577C20.3687 2.899 19.2068 1.784 18.1785 1.784C17.263 1.784 16.2424 2.61802 15.0564 4.33512C14.9911 4.4333 14.9073 4.51727 14.8099 4.58209C14.7124 4.64692 14.6032 4.69132 14.4887 4.71269C14.3742 4.73406 14.2566 4.73197 14.1429 4.70655C14.0292 4.68113 13.9216 4.63288 13.8264 4.56464C13.7312 4.49639 13.6503 4.40951 13.5885 4.30907C13.5266 4.20863 13.4851 4.09664 13.4662 3.97966C13.4474 3.86268 13.4516 3.74305 13.4787 3.62776C13.5058 3.51247 13.5552 3.40384 13.624 3.3082C14.6096 1.88769 16.1427 0 18.1785 0C19.9361 0 21.5919 1.40713 22.8403 3.96271C23.9269 6.2507 24.5038 8.75477 24.53 11.2961Z" fill="black"/>
</svg>
