<svg width="20" height="21" viewBox="0 0 20 21" fill="none" xmlns="http://www.w3.org/2000/svg">
<path d="M11.4019 8.35597L11.1633 8.64248L11.3698 8.95294L18.7131 19.9898H14.1336L8.98804 12.2569L8.61662 11.6987L8.18756 12.2139L1.71189 19.9898H1.30072L8.1966 11.7124L8.43529 11.4259L8.22874 11.1154L1.16658 0.5H5.74616L10.6105 7.80993L10.9819 8.3681L11.411 7.85289L17.5341 0.5H17.9454L11.4019 8.35597ZM8.25907 10.6379L8.67311 10.3576L8.25907 10.6379L9.02692 11.7721L9.02697 11.7722L14.2566 19.4997L14.4053 19.7194H14.6707H17.3012H18.2435L17.7153 18.9391L11.3052 9.46993L11.3052 9.46991L10.5373 8.33571L10.5373 8.33566L5.6074 1.05159L5.45867 0.831837H5.19332H2.56278H1.62048L2.14873 1.61214L8.25907 10.6379Z" fill="#323131"/>
<path d="M11.4019 8.35597L11.1633 8.64248L11.3698 8.95294L18.7131 19.9898H14.1336L8.98804 12.2569L8.61662 11.6987L8.18756 12.2139L1.71189 19.9898H1.30072L8.1966 11.7124L8.43529 11.4259L8.22874 11.1154L1.16658 0.5H5.74616L10.6105 7.80993L10.9819 8.3681L11.411 7.85289L17.5341 0.5H17.9454L11.4019 8.35597ZM8.25907 10.6379L8.67311 10.3576L8.25907 10.6379L9.02692 11.7721L9.02697 11.7722L14.2566 19.4997L14.4053 19.7194H14.6707H17.3012H18.2435L17.7153 18.9391L11.3052 9.46993L11.3052 9.46991L10.5373 8.33571L10.5373 8.33566L5.6074 1.05159L5.45867 0.831837H5.19332H2.56278H1.62048L2.14873 1.61214L8.25907 10.6379Z" stroke="#373737"/>
<path d="M11.4019 8.35597L11.1633 8.64248L11.3698 8.95294L18.7131 19.9898H14.1336L8.98804 12.2569L8.61662 11.6987L8.18756 12.2139L1.71189 19.9898H1.30072L8.1966 11.7124L8.43529 11.4259L8.22874 11.1154L1.16658 0.5H5.74616L10.6105 7.80993L10.9819 8.3681L11.411 7.85289L17.5341 0.5H17.9454L11.4019 8.35597ZM8.25907 10.6379L8.67311 10.3576L8.25907 10.6379L9.02692 11.7721L9.02697 11.7722L14.2566 19.4997L14.4053 19.7194H14.6707H17.3012H18.2435L17.7153 18.9391L11.3052 9.46993L11.3052 9.46991L10.5373 8.33571L10.5373 8.33566L5.6074 1.05159L5.45867 0.831837H5.19332H2.56278H1.62048L2.14873 1.61214L8.25907 10.6379Z" stroke="black" stroke-opacity="0.2"/>
</svg>
