<svg width="29" height="31" viewBox="0 0 29 31" fill="none" xmlns="http://www.w3.org/2000/svg">
<path d="M1.08023 21.8201V9.01838C1.08023 6.89637 1.86806 4.86128 3.2704 3.36079C4.67275 1.8603 6.57473 1.01733 8.55795 1.01733H20.5223C22.5055 1.01733 24.4075 1.8603 25.8098 3.36079C27.2122 4.86128 28 6.89637 28 9.01838V21.8201C28 23.9421 27.2122 25.9772 25.8098 27.4777C24.4075 28.9781 22.5055 29.8211 20.5223 29.8211H8.55795C6.57473 29.8211 4.67275 28.9781 3.2704 27.4777C1.86806 25.9772 1.08023 23.9421 1.08023 21.8201Z" fill="#090909"/>
<path d="M1.08023 21.8201V9.01838C1.08023 6.89637 1.86806 4.86128 3.2704 3.36079C4.67275 1.8603 6.57473 1.01733 8.55795 1.01733H20.5223C22.5055 1.01733 24.4075 1.8603 25.8098 3.36079C27.2122 4.86128 28 6.89637 28 9.01838V21.8201C28 23.9421 27.2122 25.9772 25.8098 27.4777C24.4075 28.9781 22.5055 29.8211 20.5223 29.8211H8.55795C6.57473 29.8211 4.67275 28.9781 3.2704 27.4777C1.86806 25.9772 1.08023 23.9421 1.08023 21.8201Z" stroke="#F3F3F3" stroke-width="1.5"/>
<path d="M1.08023 21.8201V9.01838C1.08023 6.89637 1.86806 4.86128 3.2704 3.36079C4.67275 1.8603 6.57473 1.01733 8.55795 1.01733H20.5223C22.5055 1.01733 24.4075 1.8603 25.8098 3.36079C27.2122 4.86128 28 6.89637 28 9.01838V21.8201C28 23.9421 27.2122 25.9772 25.8098 27.4777C24.4075 28.9781 22.5055 29.8211 20.5223 29.8211H8.55795C6.57473 29.8211 4.67275 28.9781 3.2704 27.4777C1.86806 25.9772 1.08023 23.9421 1.08023 21.8201Z" stroke="black" stroke-opacity="0.2" stroke-width="1.5"/>
<path d="M14.7293 21.8197C16.3159 21.8197 17.8375 21.1454 18.9594 19.945C20.0812 18.7446 20.7115 17.1165 20.7115 15.4189C20.7115 13.7213 20.0812 12.0932 18.9594 10.8928C17.8375 9.69244 16.3159 9.01807 14.7293 9.01807C13.1428 9.01807 11.6212 9.69244 10.4993 10.8928C9.37742 12.0932 8.74716 13.7213 8.74716 15.4189C8.74716 17.1165 9.37742 18.7446 10.4993 19.945C11.6212 21.1454 13.1428 21.8197 14.7293 21.8197Z" fill="black"/>
<path d="M14.7293 21.8197C16.3159 21.8197 17.8375 21.1454 18.9594 19.945C20.0812 18.7446 20.7115 17.1165 20.7115 15.4189C20.7115 13.7213 20.0812 12.0932 18.9594 10.8928C17.8375 9.69244 16.3159 9.01807 14.7293 9.01807C13.1428 9.01807 11.6212 9.69244 10.4993 10.8928C9.37742 12.0932 8.74716 13.7213 8.74716 15.4189C8.74716 17.1165 9.37742 18.7446 10.4993 19.945C11.6212 21.1454 13.1428 21.8197 14.7293 21.8197Z" stroke="white" stroke-width="1.5" stroke-linecap="round" stroke-linejoin="round"/>
<path d="M14.7293 21.8197C16.3159 21.8197 17.8375 21.1454 18.9594 19.945C20.0812 18.7446 20.7115 17.1165 20.7115 15.4189C20.7115 13.7213 20.0812 12.0932 18.9594 10.8928C17.8375 9.69244 16.3159 9.01807 14.7293 9.01807C13.1428 9.01807 11.6212 9.69244 10.4993 10.8928C9.37742 12.0932 8.74716 13.7213 8.74716 15.4189C8.74716 17.1165 9.37742 18.7446 10.4993 19.945C11.6212 21.1454 13.1428 21.8197 14.7293 21.8197Z" stroke="black" stroke-opacity="0.2" stroke-width="1.5" stroke-linecap="round" stroke-linejoin="round"/>
</svg>
