<svg width="31" height="33" viewBox="0 0 31 33" fill="none" xmlns="http://www.w3.org/2000/svg">
<path d="M29.9905 9.84918V23.6356C29.9905 25.9209 29.1421 28.1125 27.6319 29.7284C26.1217 31.3443 24.0734 32.2521 21.9376 32.2521H9.05292C6.91716 32.2521 4.86886 31.3443 3.35865 29.7284C1.84843 28.1125 1 25.9209 1 23.6356V9.84918C1 7.56394 1.84843 5.3723 3.35865 3.75639C4.86886 2.14048 6.91716 1.23267 9.05292 1.23267H21.9376C24.0734 1.23267 26.1217 2.14048 27.6319 3.75639C29.1421 5.3723 29.9905 7.56394 29.9905 9.84918ZM7.44234 25.3589V13.2958V25.3589Z" fill="black"/>
<path d="M7.44234 25.3589V13.2958M29.9905 9.84918V23.6356C29.9905 25.9209 29.1421 28.1125 27.6319 29.7284C26.1217 31.3443 24.0734 32.2521 21.9376 32.2521H9.05292C6.91716 32.2521 4.86886 31.3443 3.35865 29.7284C1.84843 28.1125 1 25.9209 1 23.6356V9.84918C1 7.56394 1.84843 5.3723 3.35865 3.75639C4.86886 2.14048 6.91716 1.23267 9.05292 1.23267H21.9376C24.0734 1.23267 26.1217 2.14048 27.6319 3.75639C29.1421 5.3723 29.9905 7.56394 29.9905 9.84918Z" stroke="white" stroke-width="1.5" stroke-linecap="round" stroke-linejoin="round"/>
<path d="M7.44234 25.3589V13.2958M29.9905 9.84918V23.6356C29.9905 25.9209 29.1421 28.1125 27.6319 29.7284C26.1217 31.3443 24.0734 32.2521 21.9376 32.2521H9.05292C6.91716 32.2521 4.86886 31.3443 3.35865 29.7284C1.84843 28.1125 1 25.9209 1 23.6356V9.84918C1 7.56394 1.84843 5.3723 3.35865 3.75639C4.86886 2.14048 6.91716 1.23267 9.05292 1.23267H21.9376C24.0734 1.23267 26.1217 2.14048 27.6319 3.75639C29.1421 5.3723 29.9905 7.56394 29.9905 9.84918Z" stroke="black" stroke-opacity="0.2" stroke-width="1.5" stroke-linecap="round" stroke-linejoin="round"/>
<path d="M13.8851 25.359V19.7583V25.359ZM13.8851 13.2959V19.7583V13.2959ZM13.8851 19.7583C13.8851 13.2959 23.5486 13.2959 23.5486 19.7583V25.359M7.44272 8.14322L7.45882 8.12427L7.44272 8.14322Z" fill="black"/>
<path d="M13.8851 25.359V19.7583M13.8851 19.7583V13.2959M13.8851 19.7583C13.8851 13.2959 23.5486 13.2959 23.5486 19.7583V25.359M7.44272 8.14322L7.45882 8.12427" stroke="#FFF2F2" stroke-width="1.5" stroke-linecap="round" stroke-linejoin="round"/>
<path d="M13.8851 25.359V19.7583M13.8851 19.7583V13.2959M13.8851 19.7583C13.8851 13.2959 23.5486 13.2959 23.5486 19.7583V25.359M7.44272 8.14322L7.45882 8.12427" stroke="black" stroke-opacity="0.2" stroke-width="1.5" stroke-linecap="round" stroke-linejoin="round"/>
</svg>
