<svg width="36" height="27" viewBox="0 0 36 27" fill="none" xmlns="http://www.w3.org/2000/svg">
<path d="M35.39 17.0961C35.39 19.8146 34.8892 22.14 33.9412 23.8191C32.7673 25.8997 30.9394 27 28.6659 27C24.2516 27 21.1171 20.7563 17.7993 14.1379C15.1103 8.775 12.0626 2.7 9.16348 2.7C7.68153 2.7 6.01314 4.3875 4.70023 7.20056C3.30368 10.2883 2.56194 13.6671 2.52786 17.0961C2.52786 19.3236 2.90388 21.1663 3.61484 22.4252C4.3258 23.6841 5.34326 24.3 6.7241 24.3C9.11292 24.3 11.5981 20.1589 13.712 16.1072C13.8755 15.7939 14.1487 15.5628 14.4717 15.4647C14.7946 15.3666 15.1408 15.4095 15.4341 15.5841C15.7275 15.7586 15.9438 16.0505 16.0357 16.3954C16.1275 16.7404 16.0873 17.1102 15.9239 17.4234C13.5019 22.0573 10.5965 27 6.7241 27C4.44745 27 2.61633 25.8997 1.44878 23.8191C0.500832 22.1316 0 19.8146 0 17.0961C0.037244 13.2501 0.869121 9.46028 2.43622 5.99738C4.23732 2.12963 6.62615 0 9.16348 0C13.5778 0 16.7107 6.24375 20.0301 12.8621C22.7175 18.225 25.7652 24.3 28.6659 24.3C30.0467 24.3 31.0642 23.6874 31.7752 22.4252C32.4861 21.1629 32.8621 19.3236 32.8621 17.0961C32.8286 13.6672 32.0874 10.2885 30.6913 7.20056C29.3863 4.3875 27.7101 2.7 26.2265 2.7C24.9057 2.7 23.4332 3.96225 21.7222 6.561C21.6281 6.7096 21.5072 6.83667 21.3665 6.93478C21.2259 7.0329 21.0684 7.10009 20.9032 7.13243C20.7379 7.16477 20.5684 7.16161 20.4043 7.12314C20.2402 7.08467 20.085 7.01165 19.9476 6.90836C19.8103 6.80507 19.6936 6.67358 19.6044 6.52157C19.5152 6.36956 19.4552 6.20008 19.4281 6.02303C19.4009 5.84599 19.407 5.66493 19.4461 5.49045C19.4852 5.31596 19.5564 5.15155 19.6557 5.00681C21.0776 2.85694 23.2895 0 26.2265 0C28.7623 0 31.1511 2.12963 32.9522 5.99738C34.5198 9.46014 35.3523 13.2499 35.39 17.0961Z" fill="white" fill-opacity="0.66"/>
</svg>
