<svg width="29" height="32" viewBox="0 0 29 32" fill="none" xmlns="http://www.w3.org/2000/svg">
<path d="M16.7552 12.8399L16.5322 13.1193L16.7244 13.4207L27.6378 30.5368H20.4372L12.9042 18.7236L12.5282 18.1338L12.0918 18.6805L2.62955 30.5368H1.42431L11.7718 17.5761L11.9948 17.2968L11.8026 16.9954L1.29706 0.517334H8.4977L15.6228 11.6903L15.9989 12.28L16.4352 11.7333L25.386 0.517334H26.5913L16.7552 12.8399ZM12.2102 15.9698L12.6297 15.6977L12.2102 15.9698L13.3242 17.6869L13.3243 17.687L20.9115 29.3857L21.0593 29.6136H21.331H25.1474H26.0677L25.5668 28.8415L16.2671 14.506L16.2671 14.506L15.153 12.7889L15.153 12.7889L8.00067 1.76152L7.85284 1.5336H7.58118H3.76478H2.84439L3.34533 2.30573L12.2102 15.9698Z" fill="#FFF5F5"/>
<path d="M16.7552 12.8399L16.5322 13.1193L16.7244 13.4207L27.6378 30.5368H20.4372L12.9042 18.7236L12.5282 18.1338L12.0918 18.6805L2.62955 30.5368H1.42431L11.7718 17.5761L11.9948 17.2968L11.8026 16.9954L1.29706 0.517334H8.4977L15.6228 11.6903L15.9989 12.28L16.4352 11.7333L25.386 0.517334H26.5913L16.7552 12.8399ZM12.2102 15.9698L12.6297 15.6977L12.2102 15.9698L13.3242 17.6869L13.3243 17.687L20.9115 29.3857L21.0593 29.6136H21.331H25.1474H26.0677L25.5668 28.8415L16.2671 14.506L16.2671 14.506L15.153 12.7889L15.153 12.7889L8.00067 1.76152L7.85284 1.5336H7.58118H3.76478H2.84439L3.34533 2.30573L12.2102 15.9698Z" stroke="white"/>
<path d="M16.7552 12.8399L16.5322 13.1193L16.7244 13.4207L27.6378 30.5368H20.4372L12.9042 18.7236L12.5282 18.1338L12.0918 18.6805L2.62955 30.5368H1.42431L11.7718 17.5761L11.9948 17.2968L11.8026 16.9954L1.29706 0.517334H8.4977L15.6228 11.6903L15.9989 12.28L16.4352 11.7333L25.386 0.517334H26.5913L16.7552 12.8399ZM12.2102 15.9698L12.6297 15.6977L12.2102 15.9698L13.3242 17.6869L13.3243 17.687L20.9115 29.3857L21.0593 29.6136H21.331H25.1474H26.0677L25.5668 28.8415L16.2671 14.506L16.2671 14.506L15.153 12.7889L15.153 12.7889L8.00067 1.76152L7.85284 1.5336H7.58118H3.76478H2.84439L3.34533 2.30573L12.2102 15.9698Z" stroke="black" stroke-opacity="0.2"/>
</svg>
